# xmcd
#
# Track frame offsets:
#	150
#	14494
#	27129
#	41826
#	55380
#	67194
#	80199
#	93548
#	110935
#	124671
#	137281
#	148177
#	161348
#	175405
#	186135
#	197985
#	208343
#	223671
#	238886
#	253323
#
# Disc length: 3565 seconds
#
# Revision: 2
# Processed by: cddbd v1.5.2PL0 Copyright (c) Steve Scherf et al.
# Submitted via: EasyCDDAExtractor 12.0.4.1
#
DISCID=440deb14
DTITLE=Various Artist - Country Beer
DYEAR=1900
DGENRE=Country
TTITLE0=Fernando e Matheus - Chora
TTITLE1=Maria Cecilia e Rodolfo - Tchau Tchau
TTITLE2=Luan Santana - Adrenalina
TTITLE3=Marcos e Belluti - Sem me Controlar
TTITLE4=Guilherme e Santiago - Ta se Achando
TTITLE5=Jorge e Mateus - Amo noite e Dia
TTITLE6=Geovany Reis e Fabricio - Pinta e Borda
TTITLE7=Fernando e Sorocaba - Vem ficar do meu lado
TTITLE8=Michel Telo - Fugidinha
TTITLE9=Henrique e Diego - Top do Verao
TTITLE10=Janaina (Jorge e Mateus) - A carne e Fraca
TTITLE11=Fernando e Sorocaba - To passando Mal
TTITLE12=Jorge e Mateus - Chove Chove
TTITLE13=Henrique e Juliano - Quero parar mas nao Consigo
TTITLE14=Maria Cecilia e Rodolfo (Exaltasamba) - O troco
TTITLE15=Guilherme e Santiago - E dai
TTITLE16=Henrique e Diego - Zuar e Beber
TTITLE17=Marcelo Marques e Rafael - Amor Platonico
TTITLE18=Gusttavo Lima - Inventor dos Amores
TTITLE19=Geovany Reis e Fabricio - Caiu a Ficha
EXTD=
EXTT0=
EXTT1=
EXTT2=
EXTT3=
EXTT4=
EXTT5=
EXTT6=
EXTT7=
EXTT8=
EXTT9=
EXTT10=
EXTT11=
EXTT12=
EXTT13=
EXTT14=
EXTT15=
EXTT16=
EXTT17=
EXTT18=
EXTT19=
PLAYORDER=
